<svg data-name="Layer 1" viewBox="0 0 168 168" xmlns="http://www.w3.org/2000/svg"><path d="M43.31 45.702a3 3 0 1 0-3-3 3.003 3.003 0 0 0 3 3Zm0-4.5a1.5 1.5 0 1 1-1.5 1.5 1.501 1.501 0 0 1 1.5-1.5ZM142.093 32.952a2 2 0 1 0 2 2 2.002 2.002 0 0 0-2-2Zm0 3a1 1 0 1 1 1-1 1.001 1.001 0 0 1-1 1ZM121.25 11.702a2 2 0 1 0 2 2 2.002 2.002 0 0 0-2-2Zm0 3a1 1 0 1 1 1-1 1.001 1.001 0 0 1-1 1ZM158.305 7.702a2 2 0 1 0 2 2 2.002 2.002 0 0 0-2-2Zm0 3a1 1 0 1 1 1-1 1.001 1.001 0 0 1-1 1ZM19.305 14.702a2 2 0 1 0-2 2 2.002 2.002 0 0 0 2-2Zm-3 0a1 1 0 1 1 1 1 1.001 1.001 0 0 1-1-1Z" fill="#ffa600" class="fill-2d4356"></path><path d="m10.888 66.713 1.487-1.955-.939-.532-.955 2.19h-.031l-.97-2.175-.955.548 1.471 1.909v.031l-2.301-.297v1.063l2.316-.297v.032l-1.486 1.908.891.564 1.018-2.207h.031l.939 2.191.986-.563-1.502-1.878v-.031l2.362.281v-1.063l-2.362.312v-.031zM71.734 6.278l-.856 1.099.514.325.586-1.271h.018l.54 1.262.568-.325-.865-1.081v-.018l1.36.162v-.612l-1.36.18v-.018l.856-1.126-.54-.307-.55 1.261h-.018l-.558-1.252-.551.315.848 1.1v.018l-1.325-.171v.612l1.333-.171v.018zM157.724 67.485v-1.043l-2.317.306v-.03l1.459-1.918-.921-.522-.936 2.148h-.032l-.95-2.133-.938.537 1.444 1.873v.03l-2.257-.291v1.043l2.272-.291v.031l-1.459 1.872.875.552.999-2.164h.029l.921 2.149.968-.553-1.474-1.841v-.031l2.317.276zM108.615 42.49l1.258-1.655-.795-.45-.807 1.853h-.027l-.82-1.84-.809.464 1.245 1.615v.026l-1.946-.251v.9l1.959-.252v.027l-1.258 1.615.755.477.861-1.867h.026l.794 1.853.835-.476-1.271-1.589v-.027l1.998.239v-.9l-1.998.264v-.026z" fill="#0bceb2" class="fill-0bceb2"></path><circle cx="2" cy="147.452" r="2" fill="#ffa600" class="fill-2d4356"></circle><path d="M11 145.452H8a2 2 0 0 0 0 4h3a2 2 0 0 0 0-4ZM160 145.452h-3a2 2 0 0 0 0 4h3a2 2 0 0 0 0-4Z" fill="#ffa600" class="fill-2d4356"></path><circle cx="166" cy="147.452" r="2" fill="#ffa600" class="fill-2d4356"></circle><path d="M118.154 153.452h-8.308a2.006 2.006 0 0 0 0 4h8.308a2.006 2.006 0 0 0 0-4ZM58.154 153.452h-8.308a2.006 2.006 0 0 0 0 4h8.308a2.006 2.006 0 0 0 0-4ZM104 153.452H64a2 2 0 0 0 0 4h15.94v2H72a2 2 0 0 0 0 4h25a2 2 0 0 0 0-4h-8.94v-2H104a2 2 0 0 0 0-4ZM95.77 77.782v4.11a65.651 65.651 0 0 1-13.6 1.56 35.722 35.722 0 0 1-10.17-1.3v-4.23c1.99.78 9.56 3.03 23.77-.14ZM95.77 85.892v4.09a70.196 70.196 0 0 1-13.67 1.47 38.765 38.765 0 0 1-10.1-1.18v-4.18c2.66.88 10.3 2.63 23.77-.2ZM64.003 122.986l-5.416 2.133a7.348 7.348 0 0 1-2.177-4.007 6.715 6.715 0 0 1-.06-1.67v-.01l6.28-2.56a1.795 1.795 0 0 1-.44.27 3.019 3.019 0 0 0-.34 5.43 3.477 3.477 0 0 0 2.153.414Z" fill="#0bceb2" class="fill-0bceb2"></path><path d="M105.04 69.102a2.02 2.02 0 0 0 2.12-.81l7.65-11.1a1.756 1.756 0 0 1 1.27-.73 1.813 1.813 0 0 1 1.44.49 1.55 1.55 0 0 1 .24 1.94L108 74.202l-8.39-1.86a24.034 24.034 0 0 0-1.08-4.83Zm-27.72 48.31a1.04 1.04 0 0 1-.56.55l-22.32 8.79a3.022 3.022 0 0 1-2.25-5.61l17.86-7.32a5.003 5.003 0 0 0 2.85-3.05l2.97-8.94c1.57.62 3.97 1.59 6.7 2.7Zm68.68 16.04h-26.34a7.27 7.27 0 0 0 1.02-1.18 7.436 7.436 0 0 0 .86-6.78.298.298 0 0 0-.04-.1s-10.23-23.76-10.29-23.85a4.963 4.963 0 0 0-1.88-1.73s-8.96-5.49-9.01-5.52a1.021 1.021 0 0 1-.55-.9v-16.92c2.23.49 8.36 1.98 9.17 1.98a2.012 2.012 0 0 0 1.69-.93l10.5-16.48a5.503 5.503 0 0 0-.83-6.97 5.861 5.861 0 0 0-8.78.85l-6.87 9.97-8.26-2.03a23.439 23.439 0 0 0-20.06-11.41 8.213 8.213 0 0 0-4.61 1.42c-.04.03-20.8 13.34-20.8 13.34a2.002 2.002 0 0 0-.87 2.13l4.68 20.52a5.795 5.795 0 0 0 5.64 4.59 5.87 5.87 0 0 0 5.79-5.93c0-.36-2.59-14.05-2.59-14.05l4.43-2.74v22.36a8.455 8.455 0 0 0 4.15 7.25l-3.05 9.17a1.01 1.01 0 0 1-.57.61l-17.86 7.32a6.978 6.978 0 0 0-4.26 7.67 7.083 7.083 0 0 0 3.48 4.93 6.996 6.996 0 0 0 6.02.43l22.32-8.79a5.052 5.052 0 0 0 2.79-2.75l5.27-12.86c3.51 1.44 7.18 2.97 10.15 4.21a.835.835 0 0 1 .21.16l11.34 20.79a7.437 7.437 0 0 0 1.65 2.22H104a2 2 0 0 0 0 4h42a2 2 0 0 0 0-4Zm-28.61-3.45a3.31 3.31 0 0 1-2.72 1.45h-.02a3.356 3.356 0 0 1-2.74-1.42c-.01-.01-.02-.01-.01-.02a3.4 3.4 0 0 1-.31-.52c-.01-.01-.91-1.68-2.2-4.07-.09-.16-.18-.32-.27-.49h.01l-2.85-5.22-.01-.01c-.44-.8-.88-1.62-1.31-2.41-2.58-4.74-4.95-9.07-5.07-9.22a5.081 5.081 0 0 0-1.7-1.39c-.04-.02-21.06-8.81-23.04-9.37a4.392 4.392 0 0 1-3.15-4.22v-24.84l3.05-1.89a1.998 1.998 0 1 0-2.1-3.4l-12.65 7.84a1.973 1.973 0 0 0-.91 2.07l2.73 14.25a2.849 2.849 0 0 1 .04.4 1.86 1.86 0 0 1-1.79 1.93 1.814 1.814 0 0 1-1.74-1.48l-4.37-19.15 19.49-12.51a2.224 2.224 0 0 0 .24-.19h.07a4.199 4.199 0 0 1 2.27-.67 19.56 19.56 0 0 1 19.44 19.63v18.31a4.961 4.961 0 0 0 2.67 4.43s8.96 5.5 9.02 5.53a.926.926 0 0 1 .31.25l3.92 9.1 1.94 4.52 2.11 4.89 1.74 4.06.32.74a3.4 3.4 0 0 1-.41 3.09Z" fill="#ffa600" class="fill-2d4356"></path><path d="M115.74 122.112a8.381 8.381 0 0 1-6.3 2.84c-.11 0-.2-.01-.31-.02l-2.85-5.22a4.482 4.482 0 0 0 3.1 1.24 4.155 4.155 0 0 0 4.25-3.73Z" fill="#0bceb2" class="fill-0bceb2"></path><path d="M82.654 47.952a13 13 0 1 0-13-13 13.015 13.015 0 0 0 13 13Zm0-22a9 9 0 1 1-9 9 9.01 9.01 0 0 1 9-9Z" fill="#ffa600" class="fill-2d4356"></path><path d="M87 133.452a2 2 0 0 0 0 4h7a2 2 0 0 0 0-4Z" fill="#0bceb2" class="fill-0bceb2"></path><path d="M22 137.452h55a2 2 0 0 0 0-4H22a2 2 0 0 0 0 4ZM150.721 145.452H17.28a2.017 2.017 0 1 0 0 4H150.72a2.017 2.017 0 1 0 0-4Z" fill="#ffa600" class="fill-2d4356"></path></svg>